# xmcd
#
# Track frame offsets:
#	150
#	35569
#	56454
#	86188
#	110785
#	140950
#	155008
#
# Disc length: 2819
#
# Revision: 1
# Processed by: cddbd v1.5.1PL0 Copyright (c) Steve Scherf et al.
# Submitted via: uFREEDB 1.6.0
# Normalized: r0:TRMNUM
#
DISCID=680b0107
DTITLE=Grateful Dead, The - Blues For Allah
DYEAR=1900
DGENRE=Blues
TTITLE0=Help On The Way
TTITLE1=Franklin's Tower
TTITLE2=King Solomon's Marbles
TTITLE3=The Music Never Stopped
TTITLE4=Crazy Fingers
TTITLE5=Sage and Spirit
TTITLE6=Sand Castles and Glass Camels
EXTD=
EXTT0=
EXTT1=
EXTT2=
EXTT3=
EXTT4=
EXTT5=
EXTT6=
PLAYORDER=
